<svg width="102" height="35" viewBox="0 0 102 35" fill="none" xmlns="http://www.w3.org/2000/svg">
<path d="M21.5509 9.2607C20.9636 7.43197 19.9373 5.96613 18.4744 4.86316C17.0116 3.759 15.197 3.20752 13.0308 3.20752H3.80254L0 27.1803H9.12539C11.3371 27.1803 13.3597 26.6109 15.191 25.4733C17.0235 24.3346 18.5271 22.846 19.7017 21.0054C20.8775 19.1659 21.6251 17.2345 21.9481 15.2112C22.271 13.0721 22.1382 11.0882 21.5509 9.2607ZM17.0056 14.797C16.7987 16.2688 16.3369 17.6368 15.6228 18.9021C14.9087 20.1662 14.0045 21.1605 12.91 21.8851C11.8155 22.6097 10.6576 22.9726 9.43638 22.9726H5.88623L8.36464 7.34603H11.8897C13.7796 7.34603 15.1791 8.00136 16.0893 9.31203C16.9996 10.6227 17.3046 12.4514 17.0056 14.797Z" fill="#7AB800"/>
<path d="M41.6512 16.7636H36.5353C36.765 15.4756 36.6848 14.4526 36.2937 13.6934C35.9013 12.9354 35.21 12.5558 34.2196 12.5558C33.3894 12.5558 32.5952 12.8137 31.8345 13.3317C31.0737 13.8486 30.411 14.597 29.8465 15.5735C29.2855 16.5451 28.8895 17.6934 28.6587 19.0172C28.6563 19.0244 28.6551 19.0328 28.6539 19.0399L27.3752 27.1809H22.2258L25.0595 9.14069H30.2101L29.6718 12.569C30.5534 11.3609 31.5402 10.4143 32.6299 9.72678C33.9433 8.89837 35.2794 8.48535 36.6394 8.48535C37.9288 8.48535 39.0065 8.81242 39.8702 9.46776C40.735 10.1231 41.3223 11.0721 41.6333 12.3135C41.9443 13.5561 41.9502 15.0387 41.6512 16.7636Z" fill="#7AB800"/>
<path d="M44.5542 9.14005H49.7394L46.9046 27.1802H41.7193L44.5542 9.14005ZM45.6606 6.20836C45.108 5.90994 44.6977 5.50647 44.4334 5.00154C44.1678 4.49542 44.0817 3.932 44.1738 3.31128C44.2659 2.71325 44.5243 2.16176 44.9513 1.65564C45.3771 1.15071 45.913 0.747247 46.5589 0.448826C47.2036 0.150404 47.895 0 48.633 0C49.3244 0 49.9464 0.149211 50.499 0.448826C51.0516 0.748441 51.4607 1.15071 51.7262 1.65564C51.9906 2.16176 52.0779 2.71325 51.9858 3.31128C51.8937 3.932 51.6341 4.49542 51.2083 5.00154C50.7813 5.50766 50.2454 5.90994 49.6007 6.20836C48.9548 6.50797 48.2754 6.65718 47.5613 6.65718C46.8472 6.65718 46.2132 6.50797 45.6606 6.20836Z" fill="#7AB800"/>
<path d="M50.9822 9.14062H56.3744L59.8659 22.8L68.0236 9.14062H73.6575L62.4927 27.1808H55.6483L50.9822 9.14062Z" fill="#7AB800"/>
<path d="M75.5235 1.44775H80.6741L76.5952 27.18H71.4446L75.5235 1.44775Z" fill="#7AB800"/>
<path d="M102 9.14062L97.9208 34.8729H92.8061L94.6146 23.466C93.58 24.7731 92.3779 25.8045 91.0083 26.5601C89.464 27.41 87.8516 27.8361 86.1699 27.8361C83.9104 27.8361 82.2812 27.1414 81.2788 25.7496C80.2765 24.3577 79.9822 22.3285 80.3973 19.6606L82.0563 9.14062H87.2057L85.5467 19.5579C85.3625 20.822 85.5299 21.8402 86.0479 22.6102C86.567 23.3813 87.4366 23.7657 88.6578 23.7657C89.7404 23.7657 90.7714 23.4899 91.7511 22.9384C92.7307 22.3858 93.5656 21.5991 94.257 20.5749C94.9376 19.5675 95.3945 18.3977 95.629 17.0655L96.8849 9.14062H102Z" fill="#7AB800"/>
<path d="M68.6802 34.8721H0L0.41267 31.2505H69.0929L68.6802 34.8721Z" fill="#7AB800"/>
</svg>
